<?xml version="1.0" encoding="UTF-8" standalone="no"?>
<svg
   xmlns:dc="http://purl.org/dc/elements/1.1/"
   xmlns:cc="http://creativecommons.org/ns#"
   xmlns:rdf="http://www.w3.org/1999/02/22-rdf-syntax-ns#"
   xmlns:svg="http://www.w3.org/2000/svg"
   xmlns="http://www.w3.org/2000/svg"
   xmlns:sodipodi="http://sodipodi.sourceforge.net/DTD/sodipodi-0.dtd"
   xmlns:inkscape="http://www.inkscape.org/namespaces/inkscape"
   version="1.1"
   x="0px"
   y="0px"
   width="217.231"
   height="35.194"
   viewBox="0 0 217.231 35.194"
   enable-background="new 0 0 341.25 158"
   xml:space="preserve"
   id="svg2"
   inkscape:version="0.91 r13725"
   sodipodi:docname="trb-logo-white.svg"><metadata
     id="metadata36"><rdf:RDF><cc:Work
         rdf:about=""><dc:format>image/svg+xml</dc:format><dc:type
           rdf:resource="http://purl.org/dc/dcmitype/StillImage" /><dc:title></dc:title></cc:Work></rdf:RDF></metadata><defs
     id="defs34" /><sodipodi:namedview
     pagecolor="#ffffff"
     bordercolor="#666666"
     borderopacity="1"
     objecttolerance="10"
     gridtolerance="10"
     guidetolerance="10"
     inkscape:pageopacity="0"
     inkscape:pageshadow="2"
     inkscape:window-width="1920"
     inkscape:window-height="1017"
     id="namedview32"
     showgrid="false"
     fit-margin-top="0"
     fit-margin-left="0"
     fit-margin-right="0"
     fit-margin-bottom="0"
     inkscape:zoom="0.84395604"
     inkscape:cx="-130.16422"
     inkscape:cy="10.671"
     inkscape:window-x="-8"
     inkscape:window-y="-8"
     inkscape:window-maximized="1"
     inkscape:current-layer="svg2" /><g
     id="Layer_1"
     transform="translate(-92.839999,-54.477)"><path
       d="m 222.769,55.205 86.217,0 0,17.462 -86.217,0 0,-17.462 z m -0.727,18.189 87.673,0 0,-18.917 -87.673,0 0,18.917 z"
       id="path20"
       inkscape:connector-curvature="0"
       style="fill:#000000" /><polygon
       points="234.503,66.431 229.136,69.75 229.136,70.302 246.916,70.302 246.916,69.75 241.549,66.431 241.549,59.57 244.424,59.57 248.853,63.818 248.88,63.844 249.371,63.844 249.371,57.568 226.68,57.568 226.68,63.844 227.171,63.844 231.627,59.57 234.503,59.57 "
       id="polygon22"
       style="fill:#000000" /><g
       id="g24"><path
         d="m 268.012,62.366 -6.341,0 0,-2.523 6.354,0 c 0.079,0.025 0.568,0.221 0.627,1.164 -10e-4,0.009 0.034,0.931 -0.64,1.359 m 5.426,2.256 c 0.71,-0.181 3.297,-1.031 3.218,-3.83 -0.002,-0.023 -0.169,-2.436 -2.565,-3.218 l -24.173,-0.005 0,0.823 3.772,2.364 0,6.273 -3.364,2.728 0,0.545 14.688,0 0,-0.498 -3.389,-2.774 0,-2.413 4.309,0 6.181,5.66 0.026,0.024 7.198,0 0,-0.497 -5.901,-5.182 z"
         id="path26"
         inkscape:connector-curvature="0"
         style="fill:#000000" /><path
         d="m 296.186,62.343 -6.207,0 0,-2.591 6.09,0 c 0.043,10e-4 1.059,0.06 1.164,1.245 -0.004,0.048 -0.1,1.202 -1.047,1.346 m 1.046,3.89 c -0.001,0.013 -0.098,1.341 -1.047,1.501 l -6.207,0 0,-2.891 6.09,0 c 0.042,0.002 1.058,0.064 1.164,1.39 m 5.383,-2.794 c 0.551,-0.097 1.22,-0.321 1.714,-0.833 0.483,-0.499 0.71,-1.186 0.679,-2.031 0.002,-0.027 0.106,-2.636 -2.911,-3.005 l -23.26,0 0,0.753 3.638,2.319 0,6.583 -3.594,2.294 -0.044,0.026 0,0.756 23.263,0 0.002,0 c 3.367,-0.185 3.384,-3.312 3.384,-3.339 0.11,-2.482 -1.707,-3.272 -2.871,-3.523"
         id="path28"
         inkscape:connector-curvature="0"
         style="fill:#000000" /></g><path
       d="m 303.786,80.611 0.428,0 c 2.489,0 4.641,0.92 4.641,3.771 0,2.838 -2.151,3.771 -4.641,3.771 l -0.428,0 0,-7.542 z m -1.219,8.658 1.983,0 c 3.085,0 5.521,-1.607 5.521,-4.938 0,-3.253 -2.487,-4.834 -5.481,-4.834 l -2.023,0 0,9.772 z m -5.714,-8.685 0.323,0 c 1.205,0 2.657,0.221 2.657,1.75 0,1.555 -1.348,1.788 -2.593,1.788 l -0.388,0 0,-3.538 z m 1.775,4.434 c 1.413,-0.169 2.346,-1.335 2.346,-2.735 0,-0.933 -0.467,-1.854 -1.283,-2.333 -0.778,-0.441 -1.71,-0.454 -2.579,-0.454 l -1.477,0 0,9.772 1.218,0 0,-4.134 0.505,0 2.877,4.134 1.478,0 -3.085,-4.25 z m -6.741,0.687 -3.474,0 1.737,-3.953 1.737,3.953 z m 0.507,1.114 1.114,2.449 1.31,0 -4.667,-10.187 -4.665,10.187 1.309,0 1.115,-2.449 4.484,0 z m -12.171,1.517 c -2.112,0 -3.901,-1.724 -3.901,-3.953 0,-2.152 1.608,-3.954 3.901,-3.954 2.295,0 3.902,1.802 3.902,3.954 0,2.229 -1.788,3.953 -3.902,3.953 m 0,-9.047 c -2.799,0 -5.119,2.295 -5.119,5.094 0,2.903 2.294,5.094 5.119,5.094 2.826,0 5.12,-2.19 5.12,-5.094 0,-2.8 -2.321,-5.094 -5.12,-5.094 m -11.471,9.98 2.281,0 c 1.724,0 3.396,-0.777 3.396,-2.734 0,-1.141 -0.805,-2.269 -1.957,-2.477 l 0,-0.025 c 0.661,-0.311 1.05,-1.141 1.05,-1.854 0,-2.203 -1.736,-2.683 -3.578,-2.683 l -1.192,0 0,9.773 z m 1.22,-4.472 0.751,0 c 1.089,0 2.489,0.285 2.489,1.659 0,1.386 -1.179,1.723 -2.308,1.723 l -0.933,0 0,-3.382 z m 0,-4.213 0.336,0 c 1.142,0 2.074,0.233 2.074,1.607 0,1.4 -0.946,1.633 -2.1,1.633 l -0.311,0 0,-3.24 z m -12.87,2.852 0,-3.94 -1.218,0 0,9.772 1.218,0 0,-4.691 4.653,0 0,4.691 1.219,0 0,-9.772 -1.219,0 0,3.94 -4.653,0 z m -2.566,-3.486 c -0.739,-0.454 -1.608,-0.661 -2.464,-0.661 -2.877,0 -5.197,2.255 -5.197,5.146 0,2.826 2.308,5.042 5.095,5.042 0.856,0 1.814,-0.247 2.566,-0.687 l 0,-1.439 c -0.727,0.648 -1.646,1.011 -2.605,1.011 -2.177,0 -3.837,-1.827 -3.837,-3.966 0,-2.165 1.673,-3.992 3.862,-3.992 0.92,0 1.88,0.337 2.58,0.959 l 0,-1.413 z m -12.935,0.634 0.323,0 c 1.205,0 2.657,0.221 2.657,1.75 0,1.555 -1.348,1.788 -2.593,1.788 l -0.388,0 0,-3.538 z m 1.775,4.434 c 1.413,-0.169 2.346,-1.335 2.346,-2.735 0,-0.933 -0.466,-1.854 -1.283,-2.333 -0.777,-0.441 -1.711,-0.454 -2.578,-0.454 l -1.479,0 0,9.772 1.219,0 0,-4.134 0.505,0 2.877,4.134 1.479,0 -3.086,-4.25 z m -6.739,0.687 -3.474,0 1.737,-3.953 1.737,3.953 z m 0.506,1.114 1.114,2.449 1.309,0 -4.666,-10.186 -4.666,10.187 1.309,0 1.115,-2.449 4.485,0 z m -12.624,2.45 5.25,0 0,-1.114 -4.032,0 0,-3.695 3.914,0 0,-1.115 -3.914,0 0,-2.734 4.032,0 0,-1.115 -5.25,0 0,9.773 z m -1.647,-8.503 c -0.532,-0.946 -1.426,-1.478 -2.515,-1.478 -1.478,0 -2.878,0.947 -2.878,2.528 0,1.361 1.012,1.996 2.126,2.476 l 0.675,0.285 c 0.843,0.35 1.685,0.803 1.685,1.854 0,1.023 -0.752,1.905 -1.801,1.905 -1.052,0 -1.906,-0.777 -1.894,-1.854 l -1.23,0.259 c 0.207,1.569 1.438,2.735 3.02,2.735 1.749,0 3.123,-1.271 3.123,-3.046 0,-1.633 -1.036,-2.398 -2.423,-2.942 l -0.7,-0.272 c -0.609,-0.233 -1.36,-0.635 -1.36,-1.399 0,-0.855 0.855,-1.387 1.633,-1.387 0.738,0 1.205,0.311 1.568,0.921 l 0.971,-0.585 z m -12.066,8.503 5.248,0 0,-1.114 -4.031,0 0,-3.695 3.916,0 0,-1.115 -3.916,0 0,-2.734 4.031,0 0,-1.115 -5.248,0 0,9.773 z m -5.821,-8.685 0.324,0 c 1.205,0 2.657,0.221 2.657,1.75 0,1.555 -1.349,1.788 -2.592,1.788 l -0.39,0 0,-3.538 z m 1.776,4.434 c 1.413,-0.169 2.346,-1.335 2.346,-2.735 0,-0.933 -0.466,-1.854 -1.282,-2.333 -0.777,-0.441 -1.711,-0.454 -2.58,-0.454 l -1.478,0 0,9.772 1.219,0 0,-4.134 0.505,0 2.878,4.134 1.478,0 -3.086,-4.25 z m -17.406,4.251 1.219,0 0,-7.284 7.336,7.686 0,-10.175 -1.219,0 0,7.22 -7.336,-7.687 0,10.24 z m -6.182,-0.933 c -2.113,0 -3.902,-1.724 -3.902,-3.953 0,-2.152 1.607,-3.954 3.902,-3.954 2.293,0 3.901,1.802 3.901,3.954 0,2.229 -1.788,3.953 -3.901,3.953 m 0,-9.047 c -2.8,0 -5.121,2.295 -5.121,5.094 0,2.903 2.294,5.094 5.121,5.094 2.825,0 5.12,-2.19 5.12,-5.094 0,-2.8 -2.319,-5.094 -5.12,-5.094 m -6.26,0.207 -1.219,0 0,9.772 1.219,0 0,-9.772 z m -4.458,1.115 2.32,0 0,-1.115 -5.858,0 0,1.115 2.32,0 0,8.657 1.218,0 0,-8.657 z m -5.343,5.094 -3.474,0 1.737,-3.953 1.737,3.953 z m 0.506,1.114 1.115,2.449 1.309,0 -4.666,-10.187 -4.666,10.187 1.309,0 1.115,-2.449 4.484,0 z m -8.116,-6.208 2.32,0 0,-1.115 -5.858,0 0,1.115 2.32,0 0,8.657 1.219,0 0,-8.657 z m -8.194,-0.027 0.324,0 c 1.206,0 2.657,0.221 2.657,1.75 0,1.555 -1.348,1.788 -2.592,1.788 l -0.389,0 0,-3.538 z m 1.775,4.434 c 1.413,-0.169 2.346,-1.335 2.346,-2.735 0,-0.933 -0.466,-1.854 -1.283,-2.333 -0.777,-0.441 -1.711,-0.454 -2.579,-0.454 l -1.478,0 0,9.772 1.218,0 0,-4.134 0.505,0 2.877,4.134 1.478,0 -3.084,-4.25 z m -9.293,3.318 c -2.113,0 -3.901,-1.724 -3.901,-3.953 0,-2.152 1.607,-3.954 3.901,-3.954 2.294,0 3.901,1.802 3.901,3.954 0,2.229 -1.788,3.953 -3.901,3.953 m 0,-9.047 c -2.799,0 -5.12,2.295 -5.12,5.094 0,2.903 2.294,5.094 5.12,5.094 2.826,0 5.12,-2.19 5.12,-5.094 0,-2.8 -2.321,-5.094 -5.12,-5.094 m -9.63,1.295 0.324,0 c 1.206,0 2.657,0.182 2.657,1.711 0,1.555 -1.348,1.789 -2.592,1.789 l -0.389,0 0,-3.5 z m 0,4.589 0.7,0 c 1.854,0 3.422,-0.79 3.422,-2.852 0,-1.788 -0.933,-2.825 -3.941,-2.825 l -1.399,0 0,9.773 1.218,0 0,-4.096 z m -2.865,-4.407 c -0.531,-0.946 -1.425,-1.478 -2.514,-1.478 -1.478,0 -2.877,0.947 -2.877,2.528 0,1.361 1.01,1.996 2.125,2.476 l 0.674,0.285 c 0.842,0.35 1.685,0.803 1.685,1.854 0,1.023 -0.752,1.905 -1.802,1.905 -1.05,0 -1.905,-0.777 -1.893,-1.854 l -1.231,0.259 c 0.207,1.569 1.439,2.735 3.02,2.735 1.75,0 3.124,-1.271 3.124,-3.046 0,-1.633 -1.036,-2.398 -2.423,-2.942 l -0.701,-0.272 c -0.609,-0.233 -1.36,-0.635 -1.36,-1.399 0,-0.855 0.855,-1.387 1.633,-1.387 0.739,0 1.205,0.311 1.568,0.921 l 0.972,-0.585 z m -15.605,8.503 1.219,0 0,-7.284 7.336,7.686 0,-10.175 -1.218,0 0,7.22 -7.336,-7.687 0,10.24 z m -3.629,-3.564 -3.473,0 1.737,-3.953 1.736,3.953 z m 0.506,1.114 1.114,2.45 1.309,0 -4.666,-10.188 -4.667,10.188 1.309,0 1.115,-2.45 4.486,0 z m -11.691,-6.235 0.324,0 c 1.206,0 2.657,0.221 2.657,1.75 0,1.555 -1.348,1.788 -2.592,1.788 l -0.389,0 0,-3.538 z m 1.776,4.434 c 1.413,-0.169 2.346,-1.335 2.346,-2.735 0,-0.933 -0.466,-1.854 -1.283,-2.333 -0.778,-0.441 -1.711,-0.454 -2.58,-0.454 l -1.478,0 0,9.773 1.219,0 0,-4.135 0.505,0 2.877,4.135 1.478,0 -3.084,-4.251 z m -6.274,-4.407 2.32,0 0,-1.115 -5.858,0 0,1.115 2.32,0 0,8.658 1.218,0 0,-8.658 z"
       id="path30"
       inkscape:connector-curvature="0"
       style="fill:#000000" /></g></svg>